<svg width="66" height="38" viewBox="0 0 66 38" fill="none" xmlns="http://www.w3.org/2000/svg">
<path d="M1.44625 1.54542C2.37257 0.636394 3.62875 0.125732 4.93856 0.125732C6.24837 0.125732 7.50455 0.636394 8.43087 1.54542L32.882 25.5473L57.3331 1.54542C58.2647 0.662156 59.5124 0.173415 60.8076 0.184463C62.1027 0.19551 63.3417 0.705463 64.2575 1.60448C65.1733 2.5035 65.6928 3.71966 65.7041 4.99102C65.7153 6.26238 65.2175 7.48721 64.3177 8.40172L36.3743 35.8318C35.448 36.7408 34.1918 37.2515 32.882 37.2515C31.5722 37.2515 30.316 36.7408 29.3897 35.8318L1.44625 8.40172C0.520218 7.49242 0 6.25932 0 4.97357C0 3.68782 0.520218 2.45472 1.44625 1.54542Z" fill="#222222"/>
</svg>
