<svg width="379" height="66" viewBox="0 0 379 66" fill="none" xmlns="http://www.w3.org/2000/svg">
<path d="M3.10059 32.6885C3.10059 29.9704 3.61328 27.4395 4.63867 25.0957C5.66406 22.7357 7.14518 20.693 9.08203 18.9678C11.0352 17.2262 13.4115 15.859 16.2109 14.8662C19.0267 13.8734 22.2087 13.377 25.7568 13.377C28.8656 13.377 31.7139 13.6943 34.3018 14.3291C36.9059 14.9476 39.3229 15.8997 41.5527 17.1855L37.9883 23.0449C37.321 22.6055 36.5479 22.2148 35.6689 21.873C34.8063 21.5312 33.8786 21.2464 32.8857 21.0186C31.9092 20.7744 30.8919 20.5872 29.834 20.457C28.7923 20.3268 27.7588 20.2617 26.7334 20.2617C24.2594 20.2617 22.054 20.571 20.1172 21.1895C18.1803 21.7917 16.5446 22.6462 15.21 23.7529C13.8916 24.8434 12.8825 26.1536 12.1826 27.6836C11.499 29.1973 11.1572 30.8656 11.1572 32.6885C11.1572 34.5765 11.5153 36.3099 12.2314 37.8887C12.9476 39.4674 13.9811 40.8346 15.332 41.9902C16.6992 43.1296 18.3594 44.0247 20.3125 44.6758C22.2819 45.3105 24.5036 45.6279 26.9775 45.6279C28.1006 45.6279 29.2155 45.5465 30.3223 45.3838C31.429 45.221 32.4951 45.0013 33.5205 44.7246C34.5622 44.4316 35.5632 44.0898 36.5234 43.6992C37.4837 43.2923 38.3789 42.8529 39.209 42.3809L42.7734 48.2402C40.6901 49.5749 38.2812 50.6247 35.5469 51.3896C32.8125 52.1383 29.9072 52.5127 26.8311 52.5127C22.9085 52.5127 19.4661 52.0081 16.5039 50.999C13.5417 49.9736 11.0677 48.5739 9.08203 46.7998C7.09635 45.0094 5.59896 42.9098 4.58984 40.501C3.59701 38.0758 3.10059 35.4717 3.10059 32.6885ZM49.0479 42.918C49.0479 41.5345 49.349 40.2731 49.9512 39.1338C50.5534 37.9945 51.4567 37.0179 52.6611 36.2041C53.8656 35.374 55.363 34.7393 57.1533 34.2998C58.96 33.8441 61.0596 33.6162 63.4521 33.6162C65.2262 33.6162 67.0898 33.7464 69.043 34.0068C71.0124 34.2673 73.0387 34.666 75.1221 35.2031C75.0407 34.2917 74.764 33.4535 74.292 32.6885C73.82 31.9072 73.1608 31.2399 72.3145 30.6865C71.4844 30.1169 70.4753 29.6774 69.2871 29.3682C68.1152 29.0589 66.7806 28.9043 65.2832 28.9043C64.4694 28.9043 63.5742 28.9531 62.5977 29.0508C61.6211 29.1484 60.612 29.2949 59.5703 29.4902C58.5286 29.6855 57.4951 29.9297 56.4697 30.2227C55.4606 30.5156 54.5166 30.8656 53.6377 31.2725L51.4404 25.3398C52.5309 24.9492 53.6947 24.5911 54.9316 24.2656C56.1849 23.9401 57.4626 23.6634 58.7646 23.4355C60.0667 23.1914 61.3688 23.0042 62.6709 22.874C63.973 22.7438 65.2344 22.6787 66.4551 22.6787C71.8424 22.6787 75.8464 24.054 78.4668 26.8047C81.0872 29.5553 82.3975 33.7708 82.3975 39.4512V52H75.1709V49.29C74.4222 49.7295 73.6003 50.1445 72.7051 50.5352C71.8262 50.9258 70.8659 51.2676 69.8242 51.5605C68.7826 51.8535 67.6595 52.0814 66.4551 52.2441C65.2669 52.4232 64.0055 52.5127 62.6709 52.5127C60.4248 52.5127 58.4473 52.2686 56.7383 51.7803C55.0456 51.292 53.6296 50.6165 52.4902 49.7539C51.3509 48.8913 50.4883 47.8822 49.9023 46.7266C49.3327 45.5547 49.0479 44.2852 49.0479 42.918ZM56.665 42.6738C56.665 43.1458 56.7871 43.6016 57.0312 44.041C57.2754 44.4642 57.666 44.8467 58.2031 45.1885C58.7402 45.514 59.4238 45.7826 60.2539 45.9941C61.1003 46.1895 62.1175 46.2871 63.3057 46.2871C64.5752 46.2871 65.804 46.1732 66.9922 45.9453C68.1803 45.7174 69.2871 45.4163 70.3125 45.042C71.3379 44.6676 72.2656 44.2363 73.0957 43.748C73.9258 43.2598 74.6175 42.7552 75.1709 42.2344V40.9648C74.0641 40.6556 72.9655 40.3952 71.875 40.1836C70.8008 39.972 69.7673 39.8092 68.7744 39.6953C67.7979 39.5651 66.8701 39.4756 65.9912 39.4268C65.1286 39.3779 64.3717 39.3535 63.7207 39.3535C62.3698 39.3535 61.2467 39.443 60.3516 39.6221C59.4564 39.8011 58.7321 40.0452 58.1787 40.3545C57.6253 40.6475 57.2347 40.9974 57.0068 41.4043C56.779 41.8112 56.665 42.2344 56.665 42.6738ZM91.9678 23.1914H99.1943V27.3418C100.789 26.1536 102.474 25.1283 104.248 24.2656C106.022 23.403 107.788 22.7438 109.546 22.2881L111.67 28.9043C108.887 29.181 106.437 29.8076 104.321 30.7842C102.222 31.7445 100.513 33.1035 99.1943 34.8613V52H91.9678V23.1914ZM118.213 43.1621C120.166 44.334 122.314 45.1966 124.658 45.75C127.002 46.3034 129.403 46.5801 131.86 46.5801C133.521 46.5801 134.904 46.4661 136.011 46.2383C137.118 46.0104 138.005 45.7174 138.672 45.3594C139.339 45.0013 139.811 44.5944 140.088 44.1387C140.365 43.6829 140.503 43.2191 140.503 42.7471C140.503 42.0635 140.202 41.4775 139.6 40.9893C139.014 40.501 138.037 40.2568 136.67 40.2568C136.035 40.2568 135.352 40.2975 134.619 40.3789C133.887 40.4603 133.114 40.5498 132.3 40.6475C131.502 40.7288 130.664 40.8102 129.785 40.8916C128.923 40.973 128.044 41.0137 127.148 41.0137C125.195 41.0137 123.527 40.8021 122.144 40.3789C120.776 39.9557 119.661 39.3779 118.799 38.6455C117.936 37.9131 117.31 37.0505 116.919 36.0576C116.528 35.0485 116.333 33.9661 116.333 32.8105C116.333 31.3457 116.675 29.9948 117.358 28.7578C118.042 27.5208 119.019 26.4548 120.288 25.5596C121.558 24.6481 123.088 23.9401 124.878 23.4355C126.685 22.931 128.695 22.6787 130.908 22.6787C132.064 22.6787 133.268 22.752 134.521 22.8984C135.791 23.0286 137.036 23.2077 138.257 23.4355C139.478 23.6634 140.649 23.932 141.772 24.2412C142.896 24.5342 143.888 24.8516 144.751 25.1934L142.48 30.8086C140.641 30.125 138.802 29.5879 136.963 29.1973C135.14 28.7904 133.26 28.5869 131.323 28.5869C129.972 28.5869 128.825 28.6927 127.881 28.9043C126.953 29.0996 126.196 29.3682 125.61 29.71C125.024 30.0355 124.593 30.418 124.316 30.8574C124.056 31.2806 123.926 31.7282 123.926 32.2002C123.926 32.542 123.991 32.8512 124.121 33.1279C124.268 33.4046 124.495 33.6488 124.805 33.8604C125.13 34.0557 125.545 34.2103 126.05 34.3242C126.571 34.4219 127.205 34.4707 127.954 34.4707C128.638 34.4707 129.362 34.43 130.127 34.3486C130.892 34.2673 131.689 34.1859 132.52 34.1045C133.35 34.0068 134.204 33.9173 135.083 33.8359C135.978 33.7546 136.89 33.7139 137.817 33.7139C139.543 33.7139 141.048 33.9173 142.334 34.3242C143.636 34.7311 144.71 35.3008 145.557 36.0332C146.403 36.7656 147.038 37.6283 147.461 38.6211C147.884 39.6139 148.096 40.6963 148.096 41.8682C148.096 43.3818 147.746 44.7897 147.046 46.0918C146.346 47.3939 145.304 48.5251 143.921 49.4854C142.537 50.4294 140.812 51.1699 138.745 51.707C136.694 52.2441 134.318 52.5127 131.616 52.5127C129.956 52.5127 128.353 52.4069 126.807 52.1953C125.26 52 123.787 51.7314 122.388 51.3896C120.988 51.0316 119.67 50.6165 118.433 50.1445C117.212 49.6725 116.097 49.168 115.088 48.6309L118.213 43.1621ZM152.905 32.5664C152.905 29.8809 153.41 27.3743 154.419 25.0469C155.428 22.7031 156.901 20.6686 158.838 18.9434C160.775 17.2181 163.151 15.859 165.967 14.8662C168.799 13.8734 172.038 13.377 175.684 13.377C177.002 13.377 178.32 13.4502 179.639 13.5967C180.973 13.7269 182.284 13.9385 183.569 14.2314C184.871 14.5244 186.133 14.8988 187.354 15.3545C188.59 15.7939 189.762 16.3229 190.869 16.9414L187.305 22.8008C186.637 22.4102 185.881 22.0602 185.034 21.751C184.188 21.4255 183.276 21.1569 182.3 20.9453C181.34 20.7174 180.339 20.5465 179.297 20.4326C178.271 20.3187 177.238 20.2617 176.196 20.2617C173.787 20.2617 171.639 20.571 169.751 21.1895C167.863 21.7917 166.268 22.6462 164.966 23.7529C163.664 24.8434 162.671 26.1536 161.987 27.6836C161.304 29.2135 160.962 30.89 160.962 32.7129C160.962 34.6009 161.32 36.3343 162.036 37.9131C162.752 39.4919 163.77 40.8509 165.088 41.9902C166.406 43.1296 168.001 44.0247 169.873 44.6758C171.745 45.3105 173.836 45.6279 176.147 45.6279C177.987 45.6279 179.671 45.4245 181.201 45.0176C182.731 44.5944 184.066 44.0003 185.205 43.2354C186.344 42.4704 187.272 41.5508 187.988 40.4766C188.704 39.3861 189.176 38.1654 189.404 36.8145H176.074V30.4424H196.362V30.4668L196.387 30.4424C196.794 32.3955 196.916 34.2998 196.753 36.1553C196.606 37.9945 196.183 39.736 195.483 41.3799C194.8 43.0075 193.856 44.5049 192.651 45.8721C191.447 47.2393 190.007 48.4193 188.33 49.4121C186.654 50.3887 184.749 51.1536 182.617 51.707C180.485 52.2441 178.149 52.5127 175.61 52.5127C172.062 52.5127 168.88 51.9919 166.064 50.9502C163.265 49.9085 160.889 48.4844 158.936 46.6777C156.982 44.8711 155.485 42.7552 154.443 40.3301C153.418 37.9049 152.905 35.3171 152.905 32.5664ZM202.881 37.5957C202.881 35.5286 203.296 33.5918 204.126 31.7852C204.972 29.9785 206.169 28.3997 207.715 27.0488C209.277 25.6979 211.157 24.6318 213.354 23.8506C215.568 23.0693 218.05 22.6787 220.801 22.6787C223.551 22.6787 226.025 23.0693 228.223 23.8506C230.436 24.6318 232.316 25.6979 233.862 27.0488C235.425 28.3997 236.621 29.9785 237.451 31.7852C238.298 33.5918 238.721 35.5286 238.721 37.5957C238.721 39.6628 238.298 41.5996 237.451 43.4062C236.621 45.2129 235.425 46.7917 233.862 48.1426C232.316 49.4935 230.436 50.5596 228.223 51.3408C226.025 52.1221 223.551 52.5127 220.801 52.5127C218.05 52.5127 215.568 52.1221 213.354 51.3408C211.157 50.5596 209.277 49.4935 207.715 48.1426C206.169 46.7917 204.972 45.2129 204.126 43.4062C203.296 41.5996 202.881 39.6628 202.881 37.5957ZM210.474 37.5957C210.474 38.7513 210.701 39.8499 211.157 40.8916C211.629 41.917 212.305 42.8285 213.184 43.626C214.079 44.4072 215.161 45.0339 216.431 45.5059C217.716 45.9616 219.173 46.1895 220.801 46.1895C222.428 46.1895 223.877 45.9616 225.146 45.5059C226.432 45.0339 227.515 44.4072 228.394 43.626C229.289 42.8285 229.964 41.917 230.42 40.8916C230.892 39.8499 231.128 38.7513 231.128 37.5957C231.128 36.4401 230.892 35.3415 230.42 34.2998C229.964 33.2581 229.289 32.3467 228.394 31.5654C227.515 30.7679 226.432 30.1413 225.146 29.6855C223.877 29.2135 222.428 28.9775 220.801 28.9775C219.173 28.9775 217.716 29.2135 216.431 29.6855C215.161 30.1413 214.079 30.7679 213.184 31.5654C212.305 32.3467 211.629 33.2581 211.157 34.2998C210.701 35.3415 210.474 36.4401 210.474 37.5957ZM248.096 13.8408H255.835V38.1084H248.096V13.8408ZM246.167 47.7764C246.167 47.1253 246.297 46.515 246.558 45.9453C246.834 45.3594 247.225 44.8548 247.729 44.4316C248.234 43.9922 248.844 43.6504 249.561 43.4062C250.277 43.1621 251.082 43.04 251.978 43.04C252.873 43.04 253.678 43.1621 254.395 43.4062C255.111 43.6504 255.713 43.9922 256.201 44.4316C256.706 44.8548 257.088 45.3594 257.349 45.9453C257.625 46.515 257.764 47.1253 257.764 47.7764C257.764 48.4274 257.625 49.0459 257.349 49.6318C257.088 50.2015 256.706 50.6979 256.201 51.1211C255.713 51.5443 255.111 51.8779 254.395 52.1221C253.678 52.3825 252.873 52.5127 251.978 52.5127C251.082 52.5127 250.277 52.3825 249.561 52.1221C248.844 51.8779 248.234 51.5443 247.729 51.1211C247.225 50.6979 246.834 50.2015 246.558 49.6318C246.297 49.0459 246.167 48.4274 246.167 47.7764Z" fill="white"/>
<path d="M303.833 20.5L312.167 3.83334H343.158C345.017 3.83362 346.822 4.45502 348.286 5.59877C349.751 6.74253 350.791 8.34301 351.242 10.1458L353.833 20.5H366.333C368.544 20.5 370.663 21.378 372.226 22.9408C373.789 24.5036 374.667 26.6232 374.667 28.8333V41.3333M324.667 20.5V3.83334M291.333 12.1667V28.8333M303.833 53.8333C303.833 56.0435 304.711 58.1631 306.274 59.7259C307.837 61.2887 309.957 62.1667 312.167 62.1667C314.377 62.1667 316.496 61.2887 318.059 59.7259C319.622 58.1631 320.5 56.0435 320.5 53.8333C320.5 51.6232 319.622 49.5036 318.059 47.9408C316.496 46.378 314.377 45.5 312.167 45.5C309.957 45.5 307.837 46.378 306.274 47.9408C304.711 49.5036 303.833 51.6232 303.833 53.8333ZM349.667 53.8333C349.667 56.0435 350.545 58.1631 352.107 59.7259C353.67 61.2887 355.79 62.1667 358 62.1667C360.21 62.1667 362.33 61.2887 363.893 59.7259C365.455 58.1631 366.333 56.0435 366.333 53.8333C366.333 51.6232 365.455 49.5036 363.893 47.9408C362.33 46.378 360.21 45.5 358 45.5C355.79 45.5 353.67 46.378 352.107 47.9408C350.545 49.5036 349.667 51.6232 349.667 53.8333Z" stroke="white" stroke-width="7" stroke-linecap="round" stroke-linejoin="round"/>
<path d="M374.671 41.3375C372.73 38.7488 370.214 36.6476 367.32 35.2004C364.426 33.7532 361.235 32.9999 358 33C354.766 33 351.576 33.753 348.683 35.1994C345.79 36.6459 343.274 38.7459 341.333 41.3333H328.833C326.893 38.7428 324.376 36.6401 321.481 35.1922C318.586 33.7444 315.394 32.9911 312.157 32.9924C308.921 32.9936 305.729 33.7492 302.835 35.1992C299.942 36.6493 297.426 38.7538 295.488 41.3458" stroke="white" stroke-width="7" stroke-linecap="round" stroke-linejoin="round"/>
<path d="M303.833 33V20.5H358" stroke="white" stroke-width="7" stroke-linecap="round" stroke-linejoin="round"/>
</svg>
