<svg width="92" height="66" viewBox="0 0 92 66" fill="none" xmlns="http://www.w3.org/2000/svg">
<path d="M16.8334 20.5L25.1667 3.83334H56.1584C58.0167 3.83362 59.8216 4.45502 61.2862 5.59877C62.7508 6.74253 63.7911 8.34301 64.2417 10.1458L66.8334 20.5H79.3334C81.5435 20.5 83.6631 21.378 85.2259 22.9408C86.7887 24.5036 87.6667 26.6232 87.6667 28.8333V41.3333M37.6667 20.5V3.83334M4.33337 12.1667V28.8333M16.8334 53.8333C16.8334 56.0435 17.7113 58.1631 19.2742 59.7259C20.837 61.2887 22.9566 62.1667 25.1667 62.1667C27.3768 62.1667 29.4965 61.2887 31.0593 59.7259C32.6221 58.1631 33.5 56.0435 33.5 53.8333C33.5 51.6232 32.6221 49.5036 31.0593 47.9408C29.4965 46.378 27.3768 45.5 25.1667 45.5C22.9566 45.5 20.837 46.378 19.2742 47.9408C17.7113 49.5036 16.8334 51.6232 16.8334 53.8333ZM62.6667 53.8333C62.6667 56.0435 63.5447 58.1631 65.1075 59.7259C66.6703 61.2887 68.7899 62.1667 71 62.1667C73.2102 62.1667 75.3298 61.2887 76.8926 59.7259C78.4554 58.1631 79.3334 56.0435 79.3334 53.8333C79.3334 51.6232 78.4554 49.5036 76.8926 47.9408C75.3298 46.378 73.2102 45.5 71 45.5C68.7899 45.5 66.6703 46.378 65.1075 47.9408C63.5447 49.5036 62.6667 51.6232 62.6667 53.8333Z" stroke="white" stroke-width="7" stroke-linecap="round" stroke-linejoin="round"/>
<path d="M87.6709 41.3375C85.7303 38.7488 83.2135 36.6476 80.3199 35.2004C77.4263 33.7532 74.2354 32.9999 71.0001 33C67.7658 33 64.5759 33.753 61.6831 35.1994C58.7903 36.6459 56.274 38.7459 54.3334 41.3333H41.8334C39.8931 38.7428 37.3757 36.6401 34.481 35.1922C31.5863 33.7444 28.394 32.9911 25.1573 32.9924C21.9207 32.9936 18.7289 33.7492 15.8353 35.1992C12.9417 36.6493 10.4259 38.7538 8.48755 41.3458" stroke="white" stroke-width="7" stroke-linecap="round" stroke-linejoin="round"/>
<path d="M16.8334 33V20.5H71" stroke="white" stroke-width="7" stroke-linecap="round" stroke-linejoin="round"/>
</svg>
