<svg width="102" height="29" viewBox="0 0 102 29" fill="none" xmlns="http://www.w3.org/2000/svg">
<path d="M31.9775 23V5.10449H44.917V7.21631H34.3457V12.6973H44.2456V14.7969H34.3457V20.8882H45.332V23H31.9775ZM48.3228 23V10.0361H50.3003V11.8794C51.2524 10.4552 52.6278 9.74316 54.4263 9.74316C55.2075 9.74316 55.9237 9.88558 56.5747 10.1704C57.2339 10.4471 57.7262 10.8133 58.0518 11.269C58.3773 11.7248 58.6051 12.266 58.7354 12.8926C58.8167 13.2995 58.8574 14.0116 58.8574 15.0288V23H56.6602V15.1143C56.6602 14.2191 56.5747 13.5518 56.4038 13.1123C56.2329 12.6647 55.9277 12.3107 55.4883 12.0503C55.057 11.7817 54.5483 11.6475 53.9624 11.6475C53.0265 11.6475 52.2168 11.9445 51.5332 12.5386C50.8577 13.1326 50.52 14.2598 50.52 15.9199V23H48.3228ZM65.8398 23L60.9082 10.0361H63.2275L66.0107 17.7998C66.3118 18.638 66.5885 19.5088 66.8408 20.4121C67.0361 19.7285 67.3088 18.9066 67.6587 17.9463L70.5396 10.0361H72.7979L67.8906 23H65.8398ZM74.751 7.63135V5.10449H76.9482V7.63135H74.751ZM74.751 23V10.0361H76.9482V23H74.751ZM88.7646 21.4009C87.9508 22.0926 87.1655 22.5809 86.4087 22.8657C85.66 23.1506 84.8543 23.293 83.9917 23.293C82.5675 23.293 81.473 22.9471 80.708 22.2554C79.943 21.5555 79.5605 20.6644 79.5605 19.582C79.5605 18.9473 79.703 18.3695 79.9878 17.8486C80.2808 17.3197 80.6592 16.8965 81.123 16.5791C81.5951 16.2617 82.124 16.0216 82.71 15.8589C83.1413 15.745 83.7923 15.6351 84.6631 15.5293C86.4372 15.3177 87.7433 15.0654 88.5815 14.7725C88.5897 14.4714 88.5938 14.2801 88.5938 14.1987C88.5938 13.3035 88.3862 12.6729 87.9712 12.3066C87.4097 11.8102 86.5755 11.562 85.4688 11.562C84.4352 11.562 83.6702 11.7451 83.1738 12.1113C82.6855 12.4694 82.3234 13.1082 82.0874 14.0278L79.939 13.7349C80.1343 12.8153 80.4557 12.0747 80.9033 11.5132C81.3509 10.9435 81.9979 10.5081 82.8442 10.207C83.6906 9.89779 84.6712 9.74316 85.7861 9.74316C86.8929 9.74316 87.7922 9.87337 88.4839 10.1338C89.1756 10.3942 89.6842 10.7238 90.0098 11.1226C90.3353 11.5132 90.5632 12.0096 90.6934 12.6118C90.7666 12.9862 90.8032 13.6616 90.8032 14.6382V17.5679C90.8032 19.6105 90.848 20.9045 90.9375 21.4497C91.0352 21.9868 91.2223 22.5036 91.499 23H89.2041C88.9762 22.5443 88.8298 22.0112 88.7646 21.4009ZM88.5815 16.4937C87.784 16.8192 86.5877 17.0959 84.9927 17.3237C84.0894 17.4539 83.4505 17.6004 83.0762 17.7632C82.7018 17.9259 82.4129 18.166 82.2095 18.4834C82.006 18.7926 81.9043 19.1385 81.9043 19.521C81.9043 20.1069 82.124 20.5952 82.5635 20.9858C83.0111 21.3765 83.6621 21.5718 84.5166 21.5718C85.363 21.5718 86.1157 21.3887 86.7749 21.0225C87.4341 20.6481 87.9183 20.1395 88.2275 19.4966C88.4635 19.0002 88.5815 18.2677 88.5815 17.2993V16.4937ZM94.1968 23V10.0361H96.1743V12.0015C96.6789 11.0819 97.1427 10.4756 97.5659 10.1826C97.9972 9.88965 98.4692 9.74316 98.9819 9.74316C99.7225 9.74316 100.475 9.97917 101.24 10.4512L100.483 12.4897C99.9463 12.1724 99.4092 12.0137 98.8721 12.0137C98.3919 12.0137 97.9606 12.1602 97.5781 12.4531C97.1956 12.738 96.923 13.1367 96.7603 13.6494C96.5161 14.4307 96.394 15.2852 96.394 16.2129V23H94.1968Z" fill="white"/>
<path d="M22.3188 13.5573L4.61045 5.22393C4.43216 5.13958 4.23355 5.10763 4.03779 5.13182C3.84204 5.156 3.65718 5.23533 3.50478 5.36055C3.35238 5.48577 3.2387 5.65172 3.177 5.83907C3.1153 6.02642 3.10812 6.22745 3.15629 6.41873L5.17608 14.5L3.15629 22.5812C3.10767 22.7726 3.11454 22.9738 3.17609 23.1614C3.23765 23.349 3.35135 23.5152 3.50389 23.6405C3.65643 23.7658 3.84151 23.8451 4.03747 23.8691C4.23343 23.8931 4.43217 23.8608 4.61045 23.776L22.3188 15.4427C22.4977 15.3586 22.6491 15.2252 22.755 15.0583C22.861 14.8914 22.9173 14.6977 22.9173 14.5C22.9173 14.3022 22.861 14.1086 22.755 13.9416C22.6491 13.7747 22.4977 13.6414 22.3188 13.5573ZM5.70941 20.9552L6.58337 17.4583L12.5 14.5L6.58337 11.5416L5.70941 8.04477L19.4282 14.5L5.70941 20.9552Z" fill="white"/>
</svg>
