<svg width="118" height="29" viewBox="0 0 118 29" fill="none" xmlns="http://www.w3.org/2000/svg">
<path d="M31.9653 23V5.10449H39.8999C41.495 5.10449 42.7075 5.26725 43.5376 5.59277C44.3677 5.91016 45.0309 6.47575 45.5273 7.28955C46.0238 8.10335 46.272 9.0026 46.272 9.9873C46.272 11.2568 45.861 12.327 45.0391 13.1978C44.2171 14.0685 42.9476 14.6219 41.2305 14.8579C41.8571 15.159 42.3332 15.4561 42.6587 15.749C43.3504 16.3838 44.0055 17.1772 44.624 18.1294L47.7368 23H44.7583L42.3901 19.2769C41.6984 18.2026 41.1287 17.3807 40.6812 16.811C40.2336 16.2414 39.8307 15.8426 39.4727 15.6147C39.1227 15.3869 38.7646 15.2282 38.3984 15.1387C38.1299 15.0817 37.6904 15.0532 37.0801 15.0532H34.3335V23H31.9653ZM34.3335 13.0024H39.4238C40.5062 13.0024 41.3525 12.8926 41.9629 12.6729C42.5732 12.445 43.0371 12.0869 43.3545 11.5986C43.6719 11.1022 43.8306 10.5651 43.8306 9.9873C43.8306 9.14095 43.5213 8.44515 42.9028 7.8999C42.2925 7.35465 41.3241 7.08203 39.9976 7.08203H34.3335V13.0024ZM58.5889 18.8252L60.8594 19.106C60.5013 20.4325 59.8381 21.4619 58.8696 22.1943C57.9012 22.9268 56.6642 23.293 55.1587 23.293C53.2625 23.293 51.757 22.7111 50.6421 21.5474C49.5353 20.3755 48.9819 18.7357 48.9819 16.6279C48.9819 14.4469 49.5435 12.7542 50.6665 11.5498C51.7896 10.3454 53.2463 9.74316 55.0366 9.74316C56.77 9.74316 58.186 10.3332 59.2847 11.5132C60.3833 12.6932 60.9326 14.3534 60.9326 16.4937C60.9326 16.6239 60.9285 16.8192 60.9204 17.0796H51.2524C51.3338 18.5037 51.7367 19.5942 52.4609 20.3511C53.1852 21.1079 54.0885 21.4863 55.1709 21.4863C55.9766 21.4863 56.6642 21.2747 57.2339 20.8516C57.8035 20.4284 58.2552 19.7529 58.5889 18.8252ZM51.3745 15.2729H58.6133C58.5156 14.1825 58.2389 13.3646 57.7832 12.8193C57.0833 11.973 56.1759 11.5498 55.061 11.5498C54.0519 11.5498 53.2015 11.8875 52.5098 12.563C51.8262 13.2384 51.4478 14.1418 51.3745 15.2729ZM62.7515 19.1304L64.9243 18.7886C65.0464 19.6593 65.3841 20.3267 65.9375 20.7905C66.499 21.2544 67.2803 21.4863 68.2812 21.4863C69.2904 21.4863 70.0391 21.2829 70.5273 20.876C71.0156 20.4609 71.2598 19.9767 71.2598 19.4233C71.2598 18.9269 71.0441 18.5363 70.6128 18.2515C70.3117 18.0562 69.563 17.8079 68.3667 17.5068C66.7554 17.0999 65.6364 16.75 65.0098 16.457C64.3913 16.1559 63.9193 15.745 63.5938 15.2241C63.2764 14.6951 63.1177 14.1133 63.1177 13.4785C63.1177 12.9007 63.2479 12.3677 63.5083 11.8794C63.7769 11.383 64.139 10.972 64.5947 10.6465C64.9365 10.3942 65.4004 10.1826 65.9863 10.0117C66.5804 9.83268 67.2152 9.74316 67.8906 9.74316C68.9079 9.74316 69.799 9.88965 70.564 10.1826C71.3371 10.4756 71.9067 10.8743 72.2729 11.3789C72.6392 11.8753 72.8914 12.5426 73.0298 13.3809L70.8813 13.6738C70.7837 13.0065 70.4989 12.4857 70.0269 12.1113C69.563 11.737 68.9038 11.5498 68.0493 11.5498C67.0402 11.5498 66.32 11.7166 65.8887 12.0503C65.4574 12.384 65.2417 12.7746 65.2417 13.2222C65.2417 13.507 65.3312 13.7633 65.5103 13.9912C65.6893 14.2272 65.9701 14.4225 66.3525 14.5771C66.5723 14.6585 67.2192 14.8457 68.2935 15.1387C69.8478 15.5537 70.9302 15.8955 71.5405 16.1641C72.159 16.4245 72.6432 16.807 72.9932 17.3115C73.3431 17.8161 73.5181 18.4427 73.5181 19.1914C73.5181 19.9238 73.3024 20.6156 72.8711 21.2666C72.4479 21.9095 71.8335 22.41 71.0278 22.7681C70.2222 23.118 69.3107 23.293 68.2935 23.293C66.6089 23.293 65.3231 22.943 64.436 22.2432C63.5571 21.5433 62.9956 20.5057 62.7515 19.1304ZM85.0049 18.8252L87.2754 19.106C86.9173 20.4325 86.2541 21.4619 85.2856 22.1943C84.3172 22.9268 83.0802 23.293 81.5747 23.293C79.6785 23.293 78.173 22.7111 77.0581 21.5474C75.9513 20.3755 75.3979 18.7357 75.3979 16.6279C75.3979 14.4469 75.9595 12.7542 77.0825 11.5498C78.2056 10.3454 79.6623 9.74316 81.4526 9.74316C83.186 9.74316 84.6021 10.3332 85.7007 11.5132C86.7993 12.6932 87.3486 14.3534 87.3486 16.4937C87.3486 16.6239 87.3446 16.8192 87.3364 17.0796H77.6685C77.7498 18.5037 78.1527 19.5942 78.877 20.3511C79.6012 21.1079 80.5046 21.4863 81.5869 21.4863C82.3926 21.4863 83.0802 21.2747 83.6499 20.8516C84.2196 20.4284 84.6712 19.7529 85.0049 18.8252ZM77.7905 15.2729H85.0293C84.9316 14.1825 84.6549 13.3646 84.1992 12.8193C83.4993 11.973 82.592 11.5498 81.4771 11.5498C80.4679 11.5498 79.6175 11.8875 78.9258 12.563C78.2422 13.2384 77.8638 14.1418 77.7905 15.2729ZM94.8438 21.0347L95.1611 22.9756C94.5426 23.1058 93.9893 23.1709 93.501 23.1709C92.7035 23.1709 92.085 23.0448 91.6455 22.7925C91.2061 22.5402 90.8968 22.2106 90.7178 21.8037C90.5387 21.3887 90.4492 20.522 90.4492 19.2036V11.7451H88.8379V10.0361H90.4492V6.82568L92.6343 5.50732V10.0361H94.8438V11.7451H92.6343V19.3257C92.6343 19.9523 92.6709 20.3551 92.7441 20.5342C92.8255 20.7132 92.9517 20.8556 93.1226 20.9614C93.3016 21.0672 93.5539 21.1201 93.8794 21.1201C94.1235 21.1201 94.445 21.0916 94.8438 21.0347ZM105.464 21.4009C104.65 22.0926 103.865 22.5809 103.108 22.8657C102.359 23.1506 101.554 23.293 100.691 23.293C99.2668 23.293 98.1722 22.9471 97.4072 22.2554C96.6423 21.5555 96.2598 20.6644 96.2598 19.582C96.2598 18.9473 96.4022 18.3695 96.687 17.8486C96.98 17.3197 97.3584 16.8965 97.8223 16.5791C98.2943 16.2617 98.8232 16.0216 99.4092 15.8589C99.8405 15.745 100.492 15.6351 101.362 15.5293C103.136 15.3177 104.443 15.0654 105.281 14.7725C105.289 14.4714 105.293 14.2801 105.293 14.1987C105.293 13.3035 105.085 12.6729 104.67 12.3066C104.109 11.8102 103.275 11.562 102.168 11.562C101.134 11.562 100.369 11.7451 99.873 12.1113C99.3848 12.4694 99.0226 13.1082 98.7866 14.0278L96.6382 13.7349C96.8335 12.8153 97.1549 12.0747 97.6025 11.5132C98.0501 10.9435 98.6971 10.5081 99.5435 10.207C100.39 9.89779 101.37 9.74316 102.485 9.74316C103.592 9.74316 104.491 9.87337 105.183 10.1338C105.875 10.3942 106.383 10.7238 106.709 11.1226C107.035 11.5132 107.262 12.0096 107.393 12.6118C107.466 12.9862 107.502 13.6616 107.502 14.6382V17.5679C107.502 19.6105 107.547 20.9045 107.637 21.4497C107.734 21.9868 107.922 22.5036 108.198 23H105.903C105.675 22.5443 105.529 22.0112 105.464 21.4009ZM105.281 16.4937C104.483 16.8192 103.287 17.0959 101.692 17.3237C100.789 17.4539 100.15 17.6004 99.7754 17.7632C99.401 17.9259 99.1121 18.166 98.9087 18.4834C98.7052 18.7926 98.6035 19.1385 98.6035 19.521C98.6035 20.1069 98.8232 20.5952 99.2627 20.9858C99.7103 21.3765 100.361 21.5718 101.216 21.5718C102.062 21.5718 102.815 21.3887 103.474 21.0225C104.133 20.6481 104.618 20.1395 104.927 19.4966C105.163 19.0002 105.281 18.2677 105.281 17.2993V16.4937ZM110.896 23V10.0361H112.874V12.0015C113.378 11.0819 113.842 10.4756 114.265 10.1826C114.696 9.88965 115.168 9.74316 115.681 9.74316C116.422 9.74316 117.174 9.97917 117.939 10.4512L117.183 12.4897C116.646 12.1724 116.108 12.0137 115.571 12.0137C115.091 12.0137 114.66 12.1602 114.277 12.4531C113.895 12.738 113.622 13.1367 113.459 13.6494C113.215 14.4307 113.093 15.2852 113.093 16.2129V23H110.896Z" fill="white"/>
<path d="M17.2619 6.16667C20.1357 7.80596 22.0238 10.9548 22.0238 14.5C22.0238 16.3836 21.4653 18.225 20.4188 19.7912C19.3723 21.3573 17.8849 22.578 16.1446 23.2989C14.4044 24.0197 12.4894 24.2083 10.642 23.8408C8.79457 23.4733 7.09759 22.5663 5.76566 21.2344C4.43373 19.9024 3.52668 18.2054 3.1592 16.358C2.79172 14.5106 2.98032 12.5957 3.70116 10.8554C4.42199 9.11515 5.64268 7.62774 7.20886 6.58125C8.77505 5.53476 10.6164 4.9762 12.5 4.9762" stroke="white" stroke-linecap="round" stroke-linejoin="round"/>
<path d="M17.262 10.9286V6.16669H22.0239" stroke="white" stroke-linecap="round" stroke-linejoin="round"/>
</svg>
